<svg width="25" height="24" viewBox="0 0 25 24" fill="none" xmlns="http://www.w3.org/2000/svg">
<path d="M11.21 11.29L8.71 8.79C8.5217 8.6017 8.2663 8.49591 8 8.49591C7.7337 8.49591 7.4783 8.6017 7.29 8.79C7.1017 8.9783 6.99591 9.2337 6.99591 9.5C6.99591 9.63186 7.02188 9.76243 7.07234 9.88425C7.1228 10.0061 7.19676 10.1168 7.29 10.21L8.09 11H4.5V7C4.5 6.73478 4.39464 6.48043 4.20711 6.29289C4.01957 6.10536 3.76522 6 3.5 6C3.23478 6 2.98043 6.10536 2.79289 6.29289C2.60536 6.48043 2.5 6.73478 2.5 7V17C2.5 17.2652 2.60536 17.5196 2.79289 17.7071C2.98043 17.8946 3.23478 18 3.5 18C3.76522 18 4.01957 17.8946 4.20711 17.7071C4.39464 17.5196 4.5 17.2652 4.5 17V13H8.09L7.29 13.79C7.19627 13.883 7.12188 13.9936 7.07111 14.1154C7.02034 14.2373 6.9942 14.368 6.9942 14.5C6.9942 14.632 7.02034 14.7627 7.07111 14.8846C7.12188 15.0064 7.19627 15.117 7.29 15.21C7.38296 15.3037 7.49356 15.3781 7.61542 15.4289C7.73728 15.4797 7.86799 15.5058 8 15.5058C8.13201 15.5058 8.26272 15.4797 8.38458 15.4289C8.50644 15.3781 8.61704 15.3037 8.71 15.21L11.21 12.71C11.301 12.6149 11.3724 12.5028 11.42 12.38C11.52 12.1365 11.52 11.8635 11.42 11.62C11.3724 11.4972 11.301 11.3851 11.21 11.29ZM21.5 6C21.2348 6 20.9804 6.10536 20.7929 6.29289C20.6054 6.48043 20.5 6.73478 20.5 7V11H16.91L17.71 10.21C17.8032 10.1168 17.8772 10.0061 17.9277 9.88425C17.9781 9.76243 18.0041 9.63186 18.0041 9.5C18.0041 9.36814 17.9781 9.23757 17.9277 9.11575C17.8772 8.99393 17.8032 8.88324 17.71 8.79C17.6168 8.69676 17.5061 8.6228 17.3842 8.57234C17.2624 8.52188 17.1319 8.49591 17 8.49591C16.8681 8.49591 16.7376 8.52188 16.6158 8.57234C16.4939 8.6228 16.3832 8.69676 16.29 8.79L13.79 11.29C13.699 11.3851 13.6276 11.4972 13.58 11.62C13.48 11.8635 13.48 12.1365 13.58 12.38C13.6276 12.5028 13.699 12.6149 13.79 12.71L16.29 15.21C16.383 15.3037 16.4936 15.3781 16.6154 15.4289C16.7373 15.4797 16.868 15.5058 17 15.5058C17.132 15.5058 17.2627 15.4797 17.3846 15.4289C17.5064 15.3781 17.617 15.3037 17.71 15.21C17.8037 15.117 17.8781 15.0064 17.9289 14.8846C17.9797 14.7627 18.0058 14.632 18.0058 14.5C18.0058 14.368 17.9797 14.2373 17.9289 14.1154C17.8781 13.9936 17.8037 13.883 17.71 13.79L16.91 13H20.5V17C20.5 17.2652 20.6054 17.5196 20.7929 17.7071C20.9804 17.8946 21.2348 18 21.5 18C21.7652 18 22.0196 17.8946 22.2071 17.7071C22.3946 17.5196 22.5 17.2652 22.5 17V7C22.5 6.73478 22.3946 6.48043 22.2071 6.29289C22.0196 6.10536 21.7652 6 21.5 6Z" fill="white"/>
</svg>
