<svg width="20" height="20" viewBox="0 0 20 20" fill="none" xmlns="http://www.w3.org/2000/svg">
<path d="M10.0003 9.16699C9.77932 9.16699 9.56735 9.25479 9.41107 9.41107C9.25479 9.56735 9.167 9.77931 9.167 10.0003V13.3337C9.167 13.5547 9.25479 13.7666 9.41107 13.9229C9.56735 14.0792 9.77932 14.167 10.0003 14.167C10.2213 14.167 10.4333 14.0792 10.5896 13.9229C10.7459 13.7666 10.8337 13.5547 10.8337 13.3337V10.0003C10.8337 9.77931 10.7459 9.56735 10.5896 9.41107C10.4333 9.25479 10.2213 9.16699 10.0003 9.16699ZM10.317 5.90033C10.1141 5.81698 9.88655 5.81698 9.68366 5.90033C9.58137 5.93999 9.48792 5.99946 9.40866 6.07533C9.33505 6.15633 9.27586 6.24934 9.23366 6.35033C9.18701 6.44922 9.16418 6.55768 9.167 6.66699C9.16636 6.77666 9.18738 6.88538 9.22885 6.98691C9.27032 7.08845 9.33143 7.18079 9.40866 7.25866C9.48966 7.33227 9.58267 7.39146 9.68366 7.43366C9.80991 7.48553 9.94697 7.50559 10.0828 7.49209C10.2186 7.47858 10.349 7.43193 10.4626 7.35622C10.5762 7.28051 10.6694 7.17806 10.7341 7.05789C10.7988 6.93771 10.833 6.80348 10.8337 6.66699C10.8306 6.44635 10.7443 6.23502 10.592 6.07533C10.5127 5.99946 10.4193 5.93999 10.317 5.90033ZM10.0003 1.66699C8.35215 1.66699 6.74099 2.15573 5.37058 3.07141C4.00017 3.98709 2.93206 5.28858 2.30133 6.8113C1.6706 8.33401 1.50558 10.0096 1.82712 11.6261C2.14866 13.2426 2.94234 14.7274 4.10777 15.8929C5.27321 17.0583 6.75807 17.852 8.37458 18.1735C9.99109 18.4951 11.6666 18.3301 13.1894 17.6993C14.7121 17.0686 16.0136 16.0005 16.9292 14.6301C17.8449 13.2597 18.3337 11.6485 18.3337 10.0003C18.3337 8.90598 18.1181 7.82234 17.6993 6.8113C17.2805 5.80025 16.6667 4.88159 15.8929 4.10777C15.1191 3.33395 14.2004 2.72012 13.1894 2.30133C12.1783 1.88254 11.0947 1.66699 10.0003 1.66699ZM10.0003 16.667C8.68179 16.667 7.39286 16.276 6.29653 15.5435C5.2002 14.8109 4.34572 13.7697 3.84113 12.5515C3.33655 11.3334 3.20453 9.99293 3.46176 8.69972C3.719 7.40652 4.35393 6.21863 5.28628 5.28628C6.21863 4.35393 7.40652 3.71899 8.69973 3.46176C9.99293 3.20452 11.3334 3.33654 12.5516 3.84113C13.7697 4.34571 14.8109 5.2002 15.5435 6.29652C16.276 7.39285 16.667 8.68178 16.667 10.0003C16.667 11.7684 15.9646 13.4641 14.7144 14.7144C13.4641 15.9646 11.7684 16.667 10.0003 16.667Z" fill="#D1D1D1"/>
</svg>
