<svg width="19" height="20" viewBox="0 0 19 20" fill="none" xmlns="http://www.w3.org/2000/svg">
<path fill-rule="evenodd" clip-rule="evenodd" d="M0.849609 10.1597C0.849609 6.56453 0.849609 4.76696 1.7063 3.47222C2.08886 2.89406 2.584 2.39891 3.16216 2.01636C4.4569 1.15967 6.25447 1.15967 9.84961 1.15967C13.4447 1.15967 15.2423 1.15967 16.5371 2.01636C17.1152 2.39891 17.6104 2.89406 17.9929 3.47222C18.8496 4.76696 18.8496 6.56453 18.8496 10.1597C18.8496 13.7548 18.8496 15.5524 17.9929 16.8471C17.6104 17.4253 17.1152 17.9204 16.5371 18.303C15.2423 19.1597 13.4447 19.1597 9.84961 19.1597C6.25447 19.1597 4.4569 19.1597 3.16216 18.303C2.584 17.9204 2.08886 17.4253 1.7063 16.8471C0.849609 15.5524 0.849609 13.7548 0.849609 10.1597ZM14.5089 10.1599C14.5089 12.7332 12.4228 14.8193 9.84945 14.8193C7.27613 14.8193 5.19004 12.7332 5.19004 10.1599C5.19004 7.58657 7.27613 5.50049 9.84945 5.50049C12.4228 5.50049 14.5089 7.58657 14.5089 10.1599ZM9.84945 13.2429C11.5521 13.2429 12.9325 11.8626 12.9325 10.1599C12.9325 8.4572 11.5521 7.07689 9.84945 7.07689C8.14675 7.07689 6.76645 8.4572 6.76645 10.1599C6.76645 11.8626 8.14675 13.2429 9.84945 13.2429ZM14.6929 6.36122C15.2975 6.36122 15.7877 5.87105 15.7877 5.26639C15.7877 4.66174 15.2975 4.17157 14.6929 4.17157C14.0882 4.17157 13.5981 4.66174 13.5981 5.26639C13.5981 5.87105 14.0882 6.36122 14.6929 6.36122Z" fill="url(#paint0_linear_913_1357)"/>
<defs>
<linearGradient id="paint0_linear_913_1357" x1="1.4648" y1="1.15967" x2="10.8621" y2="22.4969" gradientUnits="userSpaceOnUse">
<stop stop-color="#5C39F4"/>
<stop offset="0.526042" stop-color="#933DE2"/>
<stop offset="1" stop-color="#DD7E6E"/>
</linearGradient>
</defs>
</svg>
