<svg width="19" height="19" viewBox="0 0 19 19" fill="none" xmlns="http://www.w3.org/2000/svg">
<path d="M0.849609 3.07948C0.849609 2.50226 1.05232 2.02607 1.45772 1.65091C1.86312 1.27572 2.39016 1.08813 3.0388 1.08813C3.67587 1.08813 4.1913 1.27283 4.58513 1.64225C4.99053 2.0232 5.19324 2.51958 5.19324 3.13142C5.19324 3.68554 4.99633 4.14729 4.6025 4.51671C4.19711 4.89766 3.66428 5.08813 3.00405 5.08813H2.98668C2.3496 5.08813 1.83417 4.89766 1.44034 4.51671C1.04651 4.13575 0.849609 3.65667 0.849609 3.07948ZM1.07548 18.231V6.66389H4.93262V18.231H1.07548ZM7.06969 18.231H10.9268V11.7721C10.9268 11.3681 10.9732 11.0564 11.0658 10.837C11.228 10.4445 11.4741 10.1127 11.8042 9.84138C12.1344 9.57009 12.5484 9.43445 13.0465 9.43445C14.3438 9.43445 14.9925 10.306 14.9925 12.0492V18.231H18.8496V11.599C18.8496 9.89043 18.4442 8.59462 17.6334 7.71151C16.8226 6.82839 15.7512 6.38683 14.4191 6.38683C12.9249 6.38683 11.7608 7.02753 10.9268 8.30891V8.34354H10.9095L10.9268 8.30891V6.66389H7.06969C7.09285 7.03329 7.10444 8.18192 7.10444 10.1098C7.10444 12.0376 7.09285 14.7447 7.06969 18.231Z" fill="url(#paint0_linear_913_1364)"/>
<defs>
<linearGradient id="paint0_linear_913_1364" x1="1.4648" y1="1.08813" x2="10.1192" y2="21.7209" gradientUnits="userSpaceOnUse">
<stop stop-color="#5C39F4"/>
<stop offset="0.526042" stop-color="#933DE2"/>
<stop offset="1" stop-color="#DD7E6E"/>
</linearGradient>
</defs>
</svg>
