<svg width="34" height="40" viewBox="0 0 34 40" fill="none" xmlns="http://www.w3.org/2000/svg">
<path d="M31.0052 8.66919L28.4296 7.07714L25.5846 5.31797L19.8345 1.76093L16.9894 0L14.1444 1.76093L2.99482 8.65687L0 10.5093V30.2049L2.99482 31.9324L13.9964 38.2743L16.9912 40L19.9842 38.2743L31.0052 31.9201L34 30.1944V10.5216L31.0052 8.66919ZM16.9894 3.5201L22.7395 7.07714L10.5752 14.6011L4.82518 11.0441L16.9894 3.5201ZM2.99482 28.4792V13.4313L7.73016 16.3603L10.5752 18.1194L20.4863 24.2484L8.34321 31.563L2.99482 28.4792ZM31.0052 28.4686L16.9912 36.5485L11.3063 33.2712L23.3473 26.0181L26.2293 24.2836L31.0052 21.4073V28.4686ZM31.0052 17.9136L23.3684 22.5139L13.4203 16.3603L25.5846 8.83631L31.0052 12.1893V17.9136Z" fill="url(#paint0_linear_913_1414)"/>
<defs>
<linearGradient id="paint0_linear_913_1414" x1="1.16202" y1="2.21247e-07" x2="24.2873" y2="44.6312" gradientUnits="userSpaceOnUse">
<stop stop-color="#5C39F4"/>
<stop offset="0.526042" stop-color="#933DE2"/>
<stop offset="1" stop-color="#DD7E6E"/>
</linearGradient>
</defs>
</svg>
