<svg width="44" height="52" viewBox="0 0 44 52" fill="none" xmlns="http://www.w3.org/2000/svg">
<path d="M40.1244 11.219L36.7913 9.15865L33.1094 6.88208L25.6682 2.27885L21.9863 0L18.3045 2.27885L3.87565 11.203L0 13.6002V39.0888L3.87565 41.3244L18.113 49.5314L21.9886 51.7647L25.862 49.5314L40.1244 41.3084L44 39.0751V13.6162L40.1244 11.219ZM21.9863 4.55542L29.4276 9.15865L13.6856 18.8956L6.24435 14.2923L21.9863 4.55542ZM3.87565 36.8554V17.3816L10.0037 21.1721L13.6856 23.4487L26.5117 31.3803L10.7971 40.8463L3.87565 36.8554ZM40.1244 36.8418L21.9886 47.2981L14.6317 43.0568L30.2141 33.6705L33.9438 31.4258L40.1244 27.7036V36.8418ZM40.1244 23.1823L30.2415 29.1356L17.3675 21.1721L33.1094 11.4352L40.1244 15.7744V23.1823Z" fill="url(#paint0_linear_913_1347)"/>
<defs>
<linearGradient id="paint0_linear_913_1347" x1="1.5038" y1="2.8632e-07" x2="31.4306" y2="57.758" gradientUnits="userSpaceOnUse">
<stop stop-color="#5C39F4"/>
<stop offset="0.526042" stop-color="#933DE2"/>
<stop offset="1" stop-color="#DD7E6E"/>
</linearGradient>
</defs>
</svg>
