<svg width="4" height="19" viewBox="0 0 4 19" fill="none" xmlns="http://www.w3.org/2000/svg">
<path d="M2 7.42072C0.9 7.42072 0 8.32072 0 9.42072C0 10.5207 0.9 11.4207 2 11.4207C3.1 11.4207 4 10.5207 4 9.42072C4 8.32072 3.1 7.42072 2 7.42072ZM2 4.42072C3.1 4.42072 4 3.52072 4 2.42072C4 1.32072 3.1 0.420715 2 0.420715C0.9 0.420715 0 1.32072 0 2.42072C0 3.52072 0.9 4.42072 2 4.42072ZM2 14.4207C0.9 14.4207 0 15.3207 0 16.4207C0 17.5207 0.9 18.4207 2 18.4207C3.1 18.4207 4 17.5207 4 16.4207C4 15.3207 3.1 14.4207 2 14.4207Z" fill="#8C8C8C"/>
</svg>
