<svg width="90" height="106" viewBox="0 0 90 106" fill="none" xmlns="http://www.w3.org/2000/svg">
<path d="M82.0725 22.9733L75.2549 18.7544L67.7238 14.0926L52.5031 4.66646L44.972 0L37.4409 4.66646L7.92746 22.9407L0 27.8496V80.0431L7.92746 84.621L37.0492 101.427L44.9767 106L52.8995 101.427L82.0725 84.5884L90 80.0151V27.8822L82.0725 22.9733ZM44.972 9.32826L60.1927 18.7544L27.9933 38.6929L12.7725 29.2668L44.972 9.32826ZM7.92746 75.4699V35.5928L20.4622 43.3547L27.9933 48.0165L54.2285 64.2582L22.085 83.642L7.92746 75.4699ZM82.0725 75.4419L44.9767 96.8535L29.9285 88.1686L61.8016 68.948L69.4306 64.3515L82.0725 56.7294V75.4419ZM82.0725 47.4711L61.8575 59.6617L35.5244 43.3547L67.7238 23.4162L82.0725 32.3016V47.4711Z" fill="white"/>
</svg>
