<svg width="25" height="25" viewBox="0 0 25 25" fill="none" xmlns="http://www.w3.org/2000/svg">
<path d="M21.57 9.97072L19.68 9.34072L20.57 7.56072C20.6602 7.3744 20.6904 7.16468 20.6564 6.96049C20.6223 6.7563 20.5258 6.5677 20.38 6.42072L18.25 4.29072C18.1022 4.1428 17.9118 4.04493 17.7055 4.01084C17.4993 3.97676 17.2875 4.00819 17.1 4.10072L15.32 4.99072L14.69 3.10072C14.6235 2.90371 14.4972 2.73234 14.3287 2.61047C14.1602 2.48859 13.9579 2.42226 13.75 2.42072H10.75C10.5404 2.42018 10.3358 2.48554 10.1654 2.60756C9.9949 2.72958 9.86709 2.9021 9.8 3.10072L9.17 4.99072L7.39 4.10072C7.20369 4.0105 6.99397 3.98032 6.78978 4.01435C6.58558 4.04839 6.39699 4.14495 6.25 4.29072L4.12 6.42072C3.97209 6.56848 3.87421 6.75889 3.84013 6.96517C3.80605 7.17145 3.83748 7.38323 3.93 7.57072L4.82 9.35072L2.93 9.98072C2.733 10.0473 2.56163 10.1735 2.43975 10.342C2.31787 10.5105 2.25155 10.7128 2.25 10.9207V13.9207C2.24946 14.1304 2.31482 14.3349 2.43685 14.5053C2.55887 14.6758 2.73138 14.8036 2.93 14.8707L4.82 15.5007L3.93 17.2807C3.83978 17.467 3.80961 17.6768 3.84364 17.8809C3.87767 18.0851 3.97423 18.2737 4.12 18.4207L6.25 20.5507C6.39777 20.6986 6.58818 20.7965 6.79446 20.8306C7.00074 20.8647 7.21251 20.8332 7.4 20.7407L9.18 19.8507L9.81 21.7407C9.87709 21.9393 10.0049 22.1119 10.1754 22.2339C10.3458 22.3559 10.5504 22.4213 10.76 22.4207H13.76C13.9696 22.4213 14.1742 22.3559 14.3446 22.2339C14.5151 22.1119 14.6429 21.9393 14.71 21.7407L15.34 19.8507L17.12 20.7407C17.3051 20.8287 17.5128 20.8576 17.7149 20.8236C17.917 20.7896 18.1038 20.6944 18.25 20.5507L20.38 18.4207C20.5279 18.273 20.6258 18.0825 20.6599 17.8763C20.694 17.67 20.6625 17.4582 20.57 17.2707L19.68 15.4907L21.57 14.8607C21.767 14.7942 21.9384 14.6679 22.0603 14.4994C22.1821 14.3309 22.2485 14.1287 22.25 13.9207V10.9207C22.2505 10.7111 22.1852 10.5066 22.0632 10.3361C21.9411 10.1656 21.7686 10.0378 21.57 9.97072ZM20.25 13.2007L19.05 13.6007C18.7741 13.6902 18.5209 13.8387 18.3081 14.0358C18.0952 14.2329 17.9278 14.474 17.8175 14.7423C17.7071 15.0106 17.6564 15.2997 17.669 15.5895C17.6815 15.8793 17.7569 16.163 17.89 16.4207L18.46 17.5607L17.36 18.6607L16.25 18.0607C15.9936 17.933 15.7127 17.8618 15.4263 17.852C15.14 17.8422 14.8549 17.8941 14.5903 18.0041C14.3258 18.1141 14.0879 18.2797 13.8929 18.4896C13.6979 18.6995 13.5503 18.9488 13.46 19.2207L13.06 20.4207H11.47L11.07 19.2207C10.9805 18.9448 10.832 18.6916 10.6349 18.4788C10.4378 18.2659 10.1967 18.0985 9.92842 17.9882C9.66014 17.8778 9.37105 17.8271 9.08123 17.8397C8.7914 17.8522 8.50777 17.9276 8.25 18.0607L7.11 18.6307L6.01 17.5307L6.61 16.4207C6.7431 16.163 6.81852 15.8793 6.83105 15.5895C6.84358 15.2997 6.7929 15.0106 6.68254 14.7423C6.57218 14.474 6.40478 14.2329 6.19195 14.0358C5.97912 13.8387 5.72595 13.6902 5.45 13.6007L4.25 13.2007V11.6407L5.45 11.2407C5.72595 11.1512 5.97912 11.0027 6.19195 10.8056C6.40478 10.6085 6.57218 10.3674 6.68254 10.0991C6.7929 9.83085 6.84358 9.54177 6.83105 9.25194C6.81852 8.96212 6.7431 8.67848 6.61 8.42072L6.04 7.31072L7.14 6.21072L8.25 6.78072C8.50777 6.91381 8.7914 6.98924 9.08123 7.00176C9.37105 7.01429 9.66014 6.96362 9.92842 6.85326C10.1967 6.7429 10.4378 6.5755 10.6349 6.36266C10.832 6.14983 10.9805 5.89666 11.07 5.62072L11.47 4.42072H13.03L13.43 5.62072C13.5195 5.89666 13.668 6.14983 13.8651 6.36266C14.0622 6.5755 14.3033 6.7429 14.5716 6.85326C14.8399 6.96362 15.129 7.01429 15.4188 7.00176C15.7086 6.98924 15.9922 6.91381 16.25 6.78072L17.39 6.21072L18.49 7.31072L17.89 8.42072C17.7622 8.67716 17.6911 8.95807 17.6813 9.24441C17.6715 9.53075 17.7234 9.81585 17.8334 10.0804C17.9434 10.345 18.1089 10.5828 18.3188 10.7778C18.5287 10.9728 18.7781 11.1204 19.05 11.2107L20.25 11.6107V13.2007ZM12.25 8.42072C11.4589 8.42072 10.6855 8.65531 10.0277 9.09484C9.36993 9.53437 8.85724 10.1591 8.55448 10.89C8.25173 11.6209 8.17252 12.4252 8.32686 13.2011C8.4812 13.977 8.86217 14.6897 9.42158 15.2491C9.98099 15.8086 10.6937 16.1895 11.4696 16.3439C12.2456 16.4982 13.0498 16.419 13.7807 16.1162C14.5116 15.8135 15.1364 15.3008 15.5759 14.643C16.0154 13.9852 16.25 13.2118 16.25 12.4207C16.25 11.3599 15.8286 10.3424 15.0784 9.59229C14.3283 8.84215 13.3109 8.42072 12.25 8.42072ZM12.25 14.4207C11.8544 14.4207 11.4678 14.3034 11.1389 14.0837C10.81 13.8639 10.5536 13.5515 10.4022 13.1861C10.2509 12.8206 10.2113 12.4185 10.2884 12.0305C10.3656 11.6426 10.5561 11.2862 10.8358 11.0065C11.1155 10.7268 11.4719 10.5363 11.8598 10.4591C12.2478 10.382 12.6499 10.4216 13.0154 10.573C13.3808 10.7243 13.6932 10.9807 13.9129 11.3096C14.1327 11.6385 14.25 12.0252 14.25 12.4207C14.25 12.9512 14.0393 13.4599 13.6642 13.8349C13.2891 14.21 12.7804 14.4207 12.25 14.4207Z" fill="#D1D1D1"/>
</svg>
