<svg width="25" height="24" viewBox="0 0 25 24" fill="none" xmlns="http://www.w3.org/2000/svg">
<path d="M20.66 4.99997C19.5937 3.94467 18.1854 3.30524 16.6891 3.19705C15.1928 3.08886 13.707 3.51904 12.5 4.40997C11.2277 3.46361 9.64402 3.03448 8.06795 3.20901C6.49188 3.38353 5.04047 4.14875 4.006 5.35055C2.97154 6.55236 2.43085 8.10149 2.49283 9.68598C2.55481 11.2705 3.21485 12.7726 4.34003 13.89L10.34 19.94C10.9025 20.5018 11.665 20.8173 12.46 20.8173C13.255 20.8173 14.0175 20.5018 14.58 19.94L20.58 13.89C21.171 13.3126 21.642 12.6242 21.966 11.8642C22.29 11.1042 22.4606 10.2877 22.468 9.4616C22.4755 8.63548 22.3196 7.81603 22.0093 7.05035C21.699 6.28467 21.2405 5.58786 20.66 4.99997ZM19.25 12.46L13.25 18.46C13.1571 18.5537 13.0465 18.6281 12.9246 18.6789C12.8027 18.7296 12.672 18.7558 12.54 18.7558C12.408 18.7558 12.2773 18.7296 12.1555 18.6789C12.0336 18.6281 11.923 18.5537 11.83 18.46L5.83003 12.46C5.04579 11.6583 4.60664 10.5814 4.60664 9.45997C4.60664 8.3385 5.04579 7.26162 5.83003 6.45997C6.62919 5.67096 7.707 5.22854 8.83003 5.22854C9.95306 5.22854 11.0309 5.67096 11.83 6.45997C11.923 6.5537 12.0336 6.62809 12.1555 6.67886C12.2773 6.72963 12.408 6.75577 12.54 6.75577C12.672 6.75577 12.8027 6.72963 12.9246 6.67886C13.0465 6.62809 13.1571 6.5537 13.25 6.45997C14.0708 5.80686 15.1032 5.47869 16.1505 5.53806C17.1977 5.59743 18.1864 6.04018 18.9281 6.78187C19.6698 7.52356 20.1126 8.5123 20.1719 9.55953C20.2313 10.6068 19.9031 11.6392 19.25 12.46Z" fill="white"/>
</svg>
