<svg width="25" height="24" viewBox="0 0 25 24" fill="none" xmlns="http://www.w3.org/2000/svg">
<path d="M20.5 10.35L14.72 2.93997C14.4297 2.63767 14.0803 2.39824 13.6936 2.23653C13.3069 2.07482 12.8911 1.99428 12.472 1.99991C12.0529 2.00554 11.6394 2.09721 11.2572 2.26923C10.8749 2.44126 10.5321 2.68998 10.25 2.99997L4.50001 10.35C4.18165 10.8415 4.01155 11.4143 4.01001 12C4.02671 12.5614 4.19612 13.1076 4.50001 13.58L4.56001 13.65L10.3 21.06C10.5826 21.3592 10.9238 21.597 11.3023 21.7588C11.6807 21.9205 12.0884 22.0026 12.5 22C12.9255 21.9996 13.3463 21.9105 13.7355 21.7383C14.1246 21.5661 14.4735 21.3146 14.76 21L20.5 13.65C20.8137 13.1543 20.9753 12.5775 20.9646 11.991C20.9539 11.4044 20.7716 10.8339 20.44 10.35H20.5ZM18.93 12.49L13.26 19.71C13.0689 19.886 12.8222 19.9894 12.5627 20.0021C12.3032 20.0149 12.0475 19.9363 11.84 19.78L6.15001 12.47C6.06506 12.3274 6.01694 12.1658 6.01001 12C6.01149 11.8446 6.04555 11.6913 6.11001 11.55L11.78 4.32997C11.9711 4.15398 12.2179 4.05059 12.4773 4.03779C12.7368 4.025 12.9925 4.10363 13.2 4.25997L18.83 11.54C18.934 11.7009 18.9895 11.8884 18.99 12.08C18.9832 12.2218 18.9493 12.361 18.89 12.49H18.93Z" fill="white"/>
</svg>
