<svg width="19" height="16" viewBox="0 0 19 16" fill="none" xmlns="http://www.w3.org/2000/svg">
<path d="M12.8767 0.860908V0.857666H13.7207L14.029 0.919258C14.2346 0.959244 14.4213 1.01165 14.589 1.07648C14.7567 1.14131 14.9191 1.21696 15.0759 1.3034C15.2328 1.38984 15.3751 1.47791 15.5028 1.56759C15.6294 1.65621 15.743 1.75021 15.8437 1.84962C15.9432 1.95011 16.0985 1.97605 16.3095 1.92742C16.5205 1.8788 16.7477 1.81126 16.9912 1.72482C17.2346 1.63838 17.4754 1.54113 17.7135 1.43306C17.9515 1.325 18.0965 1.25639 18.1485 1.22722C18.1993 1.19697 18.2264 1.18076 18.2296 1.17859L18.2328 1.17373L18.2491 1.16563L18.2653 1.15752L18.2815 1.14942L18.2978 1.14131L18.301 1.13645L18.3059 1.13321L18.3108 1.12997L18.314 1.1251L18.3302 1.12024L18.3465 1.117L18.3432 1.14131L18.3383 1.16563L18.3302 1.18994L18.3221 1.21425L18.314 1.23046L18.3059 1.24667L18.2978 1.27098C18.2924 1.28719 18.287 1.30879 18.2815 1.33581C18.2761 1.36283 18.2247 1.47088 18.1273 1.65998C18.03 1.84909 17.9082 2.04088 17.7621 2.23538C17.6161 2.42988 17.4851 2.57683 17.3694 2.67625C17.2525 2.77674 17.1751 2.84697 17.1373 2.88696C17.0994 2.92801 17.0534 2.96583 16.9993 3.00042L16.9181 3.05391L16.9019 3.06201L16.8857 3.07011L16.8824 3.07498L16.8776 3.07822L16.8727 3.08146L16.8694 3.08632L16.8532 3.09443L16.837 3.10253L16.8338 3.10739L16.8289 3.11063L16.824 3.11388L16.8208 3.11874L16.8175 3.1236L16.8126 3.12684L16.8078 3.13008L16.8045 3.13495H16.8857L17.3401 3.0377C17.6431 2.97286 17.9326 2.89453 18.2085 2.80268L18.6467 2.6568L18.6954 2.64059L18.7198 2.63249L18.736 2.62438L18.7522 2.61628L18.7685 2.60817L18.7847 2.60007L18.8171 2.59521L18.8496 2.59197V2.62438L18.8415 2.62762L18.8334 2.63249L18.8301 2.63735L18.8253 2.64059L18.8204 2.64383L18.8171 2.6487L18.8139 2.65356L18.809 2.6568L18.8042 2.66004L18.8009 2.6649L18.7977 2.66977L18.7928 2.67301L18.7847 2.68922L18.7766 2.70542L18.7717 2.70867C18.7695 2.71191 18.7008 2.80374 18.5656 2.98421C18.4303 3.16574 18.3573 3.25758 18.3465 3.25975C18.3356 3.26299 18.3205 3.2792 18.301 3.30838C18.2826 3.33862 18.1679 3.45912 17.9569 3.66982C17.7459 3.88053 17.5393 4.068 17.3369 4.23226C17.1335 4.39758 17.0307 4.60072 17.0285 4.84169C17.0253 5.08158 17.0128 5.35281 16.9912 5.65535C16.9695 5.95792 16.929 6.28478 16.8694 6.63596C16.8099 6.98715 16.718 7.38426 16.5935 7.82728C16.4691 8.27031 16.3176 8.70254 16.1391 9.12395C15.9605 9.54537 15.7739 9.92356 15.5791 10.2585C15.3843 10.5935 15.2058 10.8772 15.0435 11.1095C14.8812 11.3418 14.7162 11.5606 14.5484 11.7659C14.3807 11.9712 14.1687 12.2025 13.9122 12.4596C13.6547 12.7157 13.514 12.8562 13.4902 12.8811C13.4653 12.9048 13.3593 12.9935 13.1721 13.1469C12.986 13.3014 12.7858 13.4559 12.5715 13.6104C12.3584 13.7639 12.1625 13.8919 11.984 13.9946C11.8054 14.0972 11.5901 14.2145 11.338 14.3463C11.087 14.4792 10.8153 14.6024 10.5232 14.7159C10.231 14.8293 9.92265 14.9347 9.59803 15.0319C9.27341 15.1292 8.95962 15.2048 8.65664 15.2588C8.35368 15.3129 8.01012 15.3588 7.62598 15.3966L7.04979 15.4533V15.4614H5.99479V15.4533L5.85682 15.4452C5.76486 15.4398 5.68911 15.4344 5.62959 15.429C5.57009 15.4236 5.34555 15.3939 4.95601 15.3399C4.56647 15.2859 4.2608 15.2318 4.03897 15.1778C3.81716 15.1238 3.48712 15.0211 3.04889 14.8698C2.61066 14.7186 2.23572 14.5657 1.92409 14.4111C1.61355 14.2577 1.41878 14.1604 1.33978 14.1194C1.26187 14.0794 1.17423 14.0297 1.07684 13.9703L0.930764 13.8811L0.927534 13.8763L0.922648 13.873L0.917779 13.8698L0.914533 13.8649L0.898302 13.8568L0.882071 13.8487L0.878841 13.8438L0.873956 13.8406L0.869086 13.8374L0.86584 13.8325L0.86261 13.8276L0.857725 13.8244H0.849609V13.792L0.86584 13.7952L0.882071 13.8001L0.95511 13.8082C1.0038 13.8136 1.13636 13.8217 1.35277 13.8325C1.56919 13.8433 1.79911 13.8433 2.04258 13.8325C2.28604 13.8217 2.53492 13.7974 2.78919 13.7596C3.04348 13.7217 3.34375 13.6569 3.69001 13.5651C4.03627 13.4732 4.3544 13.3641 4.6444 13.2376C4.9333 13.1102 5.13888 13.0151 5.26117 12.9524C5.38235 12.8908 5.56738 12.7762 5.81625 12.6088L6.18956 12.3575L6.1928 12.3527L6.19767 12.3494L6.20256 12.3462L6.20579 12.3413L6.20903 12.3365L6.2139 12.3332L6.21879 12.33L6.22202 12.3251L6.23825 12.3203L6.25448 12.317L6.25772 12.3008L6.26259 12.2846L6.26748 12.2814L6.27071 12.2765L6.14086 12.2684C6.0543 12.263 5.97044 12.2576 5.88928 12.2522C5.80813 12.2468 5.68099 12.2225 5.50786 12.1792C5.33474 12.136 5.14809 12.0712 4.9479 11.9847C4.74772 11.8983 4.55295 11.7956 4.36359 11.6768C4.17424 11.5579 4.03735 11.459 3.95295 11.3802C3.86963 11.3023 3.76142 11.1921 3.62833 11.0495C3.49632 10.9058 3.38162 10.7583 3.28424 10.607C3.18685 10.4558 3.0938 10.2812 3.00508 10.0835L2.87035 9.7885L2.86223 9.76419L2.85412 9.73987L2.84925 9.72367L2.846 9.70746L2.87035 9.7107L2.8947 9.71556L3.07323 9.73987C3.19227 9.75608 3.37893 9.76148 3.6332 9.75608C3.88749 9.75068 4.06332 9.73987 4.1607 9.72367C4.25809 9.70746 4.3176 9.69665 4.33924 9.69125L4.3717 9.68314L4.41228 9.67504L4.45286 9.66694L4.4561 9.66207L4.46097 9.65883L4.46586 9.65559L4.46909 9.65073L4.43662 9.64262L4.40416 9.63452L4.3717 9.62642L4.33924 9.61831L4.30678 9.61021C4.28514 9.60481 4.24728 9.594 4.19316 9.57779C4.13906 9.56158 3.99299 9.50214 3.75493 9.3995C3.51689 9.29685 3.32752 9.19689 3.18685 9.09964C3.04583 9.00211 2.91137 8.89544 2.78433 8.78034C2.65772 8.66364 2.51869 8.51343 2.36719 8.32974C2.21571 8.14605 2.08046 7.93264 1.96142 7.68951C1.8424 7.44638 1.75313 7.21407 1.69361 6.99255C1.63433 6.77233 1.59522 6.54719 1.57677 6.3199L1.54754 5.97952L1.56377 5.98276L1.58 5.98763L1.59623 5.99573L1.61246 6.00384L1.62869 6.01194L1.64492 6.02004L1.8965 6.1335C2.06423 6.20915 2.27252 6.27398 2.52139 6.328C2.77027 6.38203 2.91904 6.41175 2.96773 6.41715L3.04077 6.42525H3.18685L3.18362 6.42039L3.17873 6.41715L3.17387 6.41391L3.17062 6.40905L3.16739 6.40418L3.1625 6.40094L3.15763 6.3977L3.15439 6.39284L3.13816 6.38473L3.12193 6.37663L3.1187 6.37177L3.11381 6.36853L3.10894 6.36528L3.1057 6.36042L3.08947 6.35232L3.07323 6.34421L3.07 6.33935C3.06676 6.33718 3.02022 6.30261 2.9304 6.23562C2.84167 6.16754 2.74862 6.07948 2.65123 5.97142C2.55385 5.86336 2.45646 5.7499 2.35908 5.63104C2.26151 5.51191 2.17461 5.38446 2.09938 5.25014C2.02365 5.11508 1.94357 4.94325 1.85917 4.73472C1.77585 4.52725 1.71255 4.31816 1.66927 4.10745C1.626 3.89674 1.60165 3.68874 1.59623 3.48343C1.59082 3.27812 1.59623 3.10253 1.61246 2.95665C1.62869 2.81078 1.66115 2.64599 1.70984 2.4623C1.75854 2.27861 1.82888 2.08411 1.92084 1.8788L2.05881 1.57084L2.06692 1.54652L2.07504 1.52221L2.07992 1.51897L2.08315 1.51411L2.0864 1.50924L2.09127 1.506L2.09615 1.50924L2.09938 1.51411L2.10263 1.51897L2.1075 1.52221L2.11238 1.52545L2.11561 1.53031L2.11886 1.53518L2.12373 1.53842L2.13185 1.55463L2.13996 1.57084L2.14485 1.57408L2.14808 1.57894L2.36719 1.82207C2.51327 1.98415 2.6864 2.16515 2.88658 2.36505C3.08677 2.56495 3.19768 2.66868 3.21931 2.67625C3.24096 2.68489 3.268 2.70974 3.30047 2.75081C3.33293 2.79079 3.44114 2.88642 3.62508 3.0377C3.80904 3.18897 4.0498 3.36457 4.34736 3.56447C4.64493 3.76437 4.97495 3.96158 5.33744 4.15608C5.69994 4.35058 6.08948 4.52616 6.50606 4.68285C6.92265 4.83954 7.21481 4.94218 7.38252 4.99081C7.55025 5.03944 7.83699 5.10156 8.24276 5.17721C8.64853 5.25285 8.95422 5.30148 9.1598 5.32308C9.36539 5.34469 9.50607 5.35712 9.5818 5.36036L9.69542 5.3636L9.69219 5.33929L9.6873 5.31498L9.65484 5.11237C9.6332 4.97731 9.62238 4.78821 9.62238 4.54508C9.62238 4.30195 9.64132 4.07774 9.67919 3.87243C9.71707 3.66712 9.77388 3.45912 9.84961 3.24841C9.92536 3.0377 9.99949 2.86858 10.072 2.74108C10.1456 2.61466 10.2419 2.4704 10.3609 2.30832C10.4799 2.14623 10.6341 1.97875 10.8235 1.80586C11.0128 1.63296 11.2292 1.47898 11.4727 1.34392C11.7162 1.20885 11.9407 1.10619 12.1463 1.03596C12.3519 0.965727 12.525 0.919793 12.6657 0.898187C12.8063 0.876581 12.8767 0.864149 12.8767 0.860908Z" fill="url(#paint0_linear_913_1354)"/>
<defs>
<linearGradient id="paint0_linear_913_1354" x1="1.4648" y1="0.857666" x2="8.01416" y2="19.1866" gradientUnits="userSpaceOnUse">
<stop stop-color="#5C39F4"/>
<stop offset="0.526042" stop-color="#933DE2"/>
<stop offset="1" stop-color="#DD7E6E"/>
</linearGradient>
</defs>
</svg>
