<svg width="18" height="18" viewBox="0 0 18 18" fill="none" xmlns="http://www.w3.org/2000/svg">
<path fill-rule="evenodd" clip-rule="evenodd" d="M0 5.59864C0 3.11335 2.01471 1.09863 4.5 1.09863H12.8571C13.2121 1.09863 13.5 1.38645 13.5 1.7415V3.53886H4.31418C3.87037 3.53886 3.5106 3.89863 3.5106 4.34243C3.5106 4.78622 3.87037 5.146 4.31418 5.146H14.0652C14.0907 5.146 14.1159 5.14481 14.1407 5.14249H14.4156C14.927 5.14249 15.4175 5.34567 15.7792 5.70736C16.1409 6.06903 16.3441 6.55957 16.3441 7.07106V8.24901H12.5521C11.4921 8.24901 10.3021 9.05227 10.3021 10.4278V12.7143C10.3021 14.0898 11.4921 14.8931 12.5521 14.8931H16.3441V16.071C16.3441 16.5826 16.1409 17.0731 15.7792 17.4347C15.4175 17.7964 14.927 17.9996 14.4156 17.9996L1.92857 17.9997C1.41708 17.9997 0.926542 17.7964 0.564866 17.4347C0.203188 17.0731 0 16.5826 0 16.0711V5.59864ZM12.5521 9.85615H17.0522C17.4072 9.85615 17.695 10.1121 17.695 10.4278V12.7143C17.695 13.03 17.4072 13.286 17.0522 13.286H12.5521C12.1971 13.286 11.9093 13.03 11.9093 12.7143V10.4278C11.9093 10.1121 12.1971 9.85615 12.5521 9.85615Z" fill="white"/>
</svg>
