<svg width="21" height="16" viewBox="0 0 21 16" fill="none" xmlns="http://www.w3.org/2000/svg">
<path d="M11.2882 15.1396L7.22605 15.0637C5.9108 15.0372 4.59228 15.09 3.30282 14.8159C1.34126 14.4064 1.20229 12.3985 1.05688 10.7143C0.856519 8.34645 0.934085 5.93563 1.31219 3.58755C1.52565 2.27004 2.36568 1.48387 3.66476 1.39832C8.05011 1.08784 12.4646 1.12464 16.8403 1.26948C17.3024 1.28276 17.7677 1.35534 18.2234 1.43795C20.4727 1.84087 20.5275 4.11626 20.6733 6.03172C20.8187 7.96694 20.7573 9.9121 20.4794 11.8341C20.2564 13.4255 19.8298 14.7601 18.0294 14.8889C15.7737 15.0574 13.5697 15.193 11.3076 15.1498C11.3077 15.1396 11.2947 15.1396 11.2882 15.1396ZM8.90006 11.1106C10.6 10.1132 12.2674 9.13242 13.9576 8.14169C12.2545 7.14428 10.5902 6.16349 8.90006 5.17277V11.1106Z" fill="url(#paint0_linear_913_1368)"/>
<defs>
<linearGradient id="paint0_linear_913_1368" x1="1.62629" y1="1.16138" x2="7.24874" y2="19.2207" gradientUnits="userSpaceOnUse">
<stop stop-color="#5C39F4"/>
<stop offset="0.526042" stop-color="#933DE2"/>
<stop offset="1" stop-color="#DD7E6E"/>
</linearGradient>
</defs>
</svg>
